<?xml version="1.0" encoding="utf-8"?>
<!-- Generator: Adobe Illustrator 25.2.3, SVG Export Plug-In . SVG Version: 6.00 Build 0)  -->
<svg version="1.1" id="arrow-circle-down" xmlns="http://www.w3.org/2000/svg" xmlns:xlink="http://www.w3.org/1999/xlink" x="0px"
	 y="0px" viewBox="0 0 512 512" style="enable-background:new 0 0 512 512;" xml:space="preserve">
<style type="text/css">
	.st0{fill:#F9F8FC;}
</style>
<path class="st0" d="M0,256c0,141.4,114.6,256,256,256s256-114.6,256-256S397.4,0,256,0C114.7,0.2,0.2,114.7,0,256z M310.1,134.3
	l76.5,76.5l0,0c25,25,25,65.5,0,90.5c0,0,0,0,0,0l-76.5,76.5l-0.5,0.5c-8.3,8.4-21.8,8.5-30.2,0.3c-8.4-8.3-8.5-21.8-0.3-30.2
	c0.3-0.3,0.5-0.5,0.8-0.8l70.3-70.3L128,277.5c-11.8,0-21.3-9.6-21.3-21.3c0-11.8,9.6-21.3,21.3-21.3l222.1-0.1l-70.2-70.3
	c-8.5-8.2-8.7-21.7-0.5-30.2c8.2-8.5,21.7-8.7,30.2-0.5C309.7,133.9,309.9,134.1,310.1,134.3L310.1,134.3z"/>
</svg>
