<?xml version="1.0" encoding="utf-8"?>
<!-- Generator: Adobe Illustrator 25.2.3, SVG Export Plug-In . SVG Version: 6.00 Build 0)  -->
<svg version="1.1" id="Capa_4" xmlns="http://www.w3.org/2000/svg" xmlns:xlink="http://www.w3.org/1999/xlink" x="0px" y="0px"
	 viewBox="0 0 783.1 763.8" style="enable-background:new 0 0 783.1 763.8;" xml:space="preserve">
<style type="text/css">
	.st0{fill-rule:evenodd;clip-rule:evenodd;fill:#F9F8FC;}
</style>
<path class="st0" d="M391.6,0C175.3,0,0,175.3,0,391.5c0,173,112.2,319.8,267.8,371.5c19.6,3.6,26.8-8.5,26.8-18.8
	c0-9.3-0.4-40.2-0.5-72.9c-108.9,23.7-131.9-46.2-131.9-46.2c-17.8-45.3-43.5-57.3-43.5-57.3c-35.5-24.3,2.7-23.8,2.7-23.8
	c39.3,2.8,60,40.4,60,40.4c34.9,59.8,91.6,42.5,113.9,32.5c3.5-25.3,13.7-42.6,24.9-52.4c-87-9.9-178.4-43.5-178.4-193.5
	c0-42.7,15.3-77.7,40.4-105.1c-4.1-9.9-17.5-49.7,3.8-103.6c0,0,32.9-10.5,107.7,40.1c64.2-17.6,131.9-17.6,196.1,0
	c74.7-50.7,107.6-40.2,107.6-40.2c21.3,53.9,7.9,93.8,3.8,103.6c25.1,27.4,40.3,62.4,40.3,105.1c0,150.4-91.6,183.5-178.8,193.2
	c14,12.1,26.6,36,26.6,72.5c0,52.4-0.5,94.6-0.5,107.5c0,10.4,7,22.6,26.9,18.8c155.5-51.8,267.6-198.5,267.6-371.5
	C783.1,175.3,607.8,0,391.6,0z"/>
<path d="M148.3,562.2c-0.9,2-3.9,2.5-6.7,1.2s-4.4-4-3.5-5.9s3.9-2.5,6.8-1.2C147.6,557.7,149.3,560.2,148.3,562.2z"/>
<path d="M164.2,579.9c-1.9,1.7-5.5,0.9-8-1.8s-3-6.4-1.1-8.1s5.5-0.9,8,1.8S166.1,578.1,164.2,579.9L164.2,579.9z"/>
<path d="M179.6,602.4c-2.4,1.7-6.3,0.1-8.8-3.4s-2.4-7.7,0.1-9.3s6.3-0.2,8.7,3.3S182,600.7,179.6,602.4z"/>
<path d="M200.7,624.2c-2.1,2.4-6.7,1.7-10-1.5s-4.4-7.6-2.2-10s6.8-1.7,10.1,1.5S203,621.9,200.7,624.2z"/>
<path d="M229.9,636.9c-1,3.1-5.4,4.5-9.8,3.2s-7.3-4.9-6.4-8s5.4-4.5,9.8-3.1S230.9,633.8,229.9,636.9L229.9,636.9z"/>
<path d="M262,639.2c0.1,3.2-3.7,5.9-8.3,6s-8.5-2.5-8.5-5.7s3.7-5.9,8.4-6S262,636,262,639.2L262,639.2z"/>
<path d="M291.8,634.1c0.5,3.1-2.7,6.4-7.3,7.2s-8.7-1.1-9.3-4.2s2.7-6.5,7.3-7.3S291.2,630.9,291.8,634.1z"/>
</svg>
