<?xml version="1.0" encoding="utf-8"?>
<!-- Generator: Adobe Illustrator 25.2.3, SVG Export Plug-In . SVG Version: 6.00 Build 0)  -->
<svg version="1.1" id="Capa_4" xmlns="http://www.w3.org/2000/svg" xmlns:xlink="http://www.w3.org/1999/xlink" x="0px" y="0px"
	 viewBox="0 0 776.9 776.9" style="enable-background:new 0 0 776.9 776.9;" xml:space="preserve">
<style type="text/css">
	.st0{fill:#F9F8FC;}
</style>
<g id="icono">
	<path class="st0" d="M578.2,294.2c-1.2-25.5-6.8-51.4-25.5-70.1c-18.5-18.5-44.7-24.3-70.1-25.5c-24.6-1.1-32-1.4-94.2-1.4
		s-69.6,0.2-94.2,1.4c-25.4,1.2-51.4,6.8-70.1,25.5c-18.3,18.3-24.3,44.9-25.5,70.1c-1.1,24.6-1.4,32-1.4,94.2s0.2,69.6,1.4,94.2
		c1.2,25.3,6.9,51.5,25.5,70.1c18.2,18.3,45,24.3,70.1,25.5c24.6,1.1,32,1.4,94.2,1.4s69.6-0.2,94.2-1.4
		c25.5-1.2,51.4-6.8,70.1-25.5c18.4-18.4,24.3-44.8,25.5-70.1c1.1-24.6,1.3-32,1.3-94.2S579.3,318.8,578.2,294.2z M388.4,508.1
		c-66.1,0-119.7-53.6-119.7-119.7s53.6-119.7,119.7-119.7s119.7,53.6,119.7,119.7l0,0l0,0C508.1,454.5,454.5,508.1,388.4,508.1z
		 M512.9,292c-15.5,0-28-12.5-28-28s12.5-28,28-28s28,12.5,28,28S528.3,292,512.9,292z M388.4,310.7c-42.9,0-77.7,34.8-77.7,77.7
		s34.8,77.7,77.7,77.7s77.7-34.8,77.7-77.7C466.1,345.5,431.4,310.7,388.4,310.7L388.4,310.7z"/>
	<path class="st0" d="M388.4,0C173.9,0,0,173.9,0,388.4s173.9,388.4,388.4,388.4S776.9,603,776.9,388.4S603,0,388.4,0z M620.1,484.5
		c-1.7,36-11.6,71.7-37.7,97.8c-26,26-61.8,36.1-97.8,37.7c-24.9,1.1-32.8,1.4-96.1,1.4s-71.2-0.3-96.1-1.4
		c-36-1.7-71.7-11.6-97.9-37.7s-36-61.9-37.7-97.8c-1.1-24.9-1.4-32.8-1.4-96.1s0.3-71.2,1.4-96.1c1.6-36,11.6-71.7,37.7-97.9
		s61.8-36,97.9-37.7c24.9-1.1,32.8-1.4,96.1-1.4s71.2,0.3,96.1,1.4c35.9,1.7,71.8,11.7,97.9,37.7s36.1,61.8,37.7,97.9
		c1.1,24.9,1.4,32.8,1.4,96.1S621.2,459.7,620.1,484.5z"/>
</g>
</svg>
