<?xml version="1.0" encoding="utf-8"?>
<!-- Generator: Adobe Illustrator 25.2.3, SVG Export Plug-In . SVG Version: 6.00 Build 0)  -->
<svg version="1.1" id="Capa_1" xmlns="http://www.w3.org/2000/svg" xmlns:xlink="http://www.w3.org/1999/xlink" x="0px" y="0px"
	 viewBox="0 0 776.9 776.9" style="enable-background:new 0 0 776.9 776.9;" xml:space="preserve">
<style type="text/css">
	.st0{fill:#F9F8FC;}
</style>
<g id="Capa_4">
	<path class="st0" d="M299.2,259.6c0,22.1-17.9,40.1-40.1,40.1c-22.1,0-40.1-17.9-40.1-40.1c0-22.1,17.9-40.1,40.1-40.1l0,0
		C281.2,219.5,299.2,237.5,299.2,259.6L299.2,259.6z"/>
	<rect x="224.5" y="330.1" class="st0" width="69.1" height="222.5"/>
	<path class="st0" d="M552.6,430.5v122h-69.1V444.4c0-25.8-0.5-59-35.9-59c-36,0-41.5,28.1-41.5,57.1v110h-69V330.1h66.3v30.4h0.9
		c13.5-23.1,38.7-36.9,65.4-35.9C539.7,324.6,552.6,370.6,552.6,430.5z"/>
	<path class="st0" d="M388.4,0C173.9,0,0,173.9,0,388.4s173.9,388.4,388.4,388.4S776.9,603,776.9,388.4S603,0,388.4,0z M621.5,587.9
		c-0.3,18.8-15.7,33.9-34.5,33.6H189.8c-18.8,0.2-34.2-14.8-34.4-33.6l0,0V189c0.2-18.8,15.6-33.8,34.4-33.6H587l0,0
		c18.8-0.2,34.3,14.8,34.5,33.6V587.9z"/>
</g>
</svg>
