<?xml version="1.0" encoding="utf-8"?>
<!-- Generator: Adobe Illustrator 25.2.3, SVG Export Plug-In . SVG Version: 6.00 Build 0)  -->
<svg version="1.1" id="Capa_1" xmlns="http://www.w3.org/2000/svg" xmlns:xlink="http://www.w3.org/1999/xlink" x="0px" y="0px"
	 viewBox="0 0 776.9 776.9" style="enable-background:new 0 0 776.9 776.9;" xml:space="preserve">
<style type="text/css">
	.st0{fill:#F9F8FC;}
</style>
<g id="Capa_5">
	<path class="st0" d="M446.6,388.4c0,32.2-26.1,58.2-58.2,58.2s-58.2-26.1-58.2-58.2s26.1-58.2,58.2-58.2l0,0
		C420.5,330.1,446.6,356.2,446.6,388.4C446.6,388.4,446.6,388.4,446.6,388.4z"/>
	<path class="st0" d="M388.4,0C173.9,0,0,173.9,0,388.4s173.9,388.4,388.4,388.4S776.9,603,776.9,388.4S603,0,388.4,0z M621.4,417.5
		c-0.4,48.3-39.8,87.1-88,86.7c-25.3-0.2-49.3-11.4-65.8-30.6c-47.6,43.5-121.5,40.3-165-7.3c-19.5-21.3-30.4-49-30.6-77.9
		c4.9-153.9,228.1-154,233,0v29.1c0.3,16.1,13.6,28.9,29.7,28.6c15.7-0.3,28.3-12.9,28.6-28.6v-29.1c-9.2-231.6-340.3-231.6-349.5,0
		c-2.7,138.7,163.5,224.9,275.2,143l0.3-0.2c13.2-9.2,31.4-5.9,40.5,7.3c9.2,13.2,5.9,31.4-7.3,40.5l0,0
		c-150.3,109-369.4-4.7-367-190.6c0.1-128.6,104.4-232.9,233-233c128.6,0.1,232.8,104.4,233,233L621.4,417.5z"/>
</g>
</svg>
